<svg width="30" height="30" viewBox="0 0 30 30" fill="none" xmlns="http://www.w3.org/2000/svg" xmlns:xlink="http://www.w3.org/1999/xlink" class=""><rect id="r4" width="30" height="30" x="0" y="0" rx="125" fill="url(#r5)" stroke="#FFFFFF" stroke-width="0" stroke-opacity="100%" paint-order="stroke"></rect><clipPath id="clip"><use xlink:href="#r4"></use></clipPath><defs><linearGradient id="r5" gradientUnits="userSpaceOnUse" gradientTransform="rotate(55)" style="transform-origin: center center;"><stop stop-color="#DD9F1A"></stop><stop offset="1" stop-color="#11F166"></stop></linearGradient><radialGradient id="r6" cx="0" cy="0" r="1" gradientUnits="userSpaceOnUse" gradientTransform="translate(256) rotate(90) scale(512)"><stop stop-color="white"></stop><stop offset="1" stop-color="white" stop-opacity="0"></stop></radialGradient></defs><svg xmlns="http://www.w3.org/2000/svg" fill="none" viewBox="0 0 16 16" width="30" height="30" x="96" y="96" alignment-baseline="middle" style="color: rgb(255, 255, 255);"><path stroke="currentColor" stroke-linecap="round" stroke-linejoin="round" stroke-width="1.5" d="M12 6.5a1.75 1.75 0 1 1-3.5 0 1.75 1.75 0 0 1 3.5 0ZM7.5 3.5a1.75 1.75 0 1 1-3.5 0 1.75 1.75 0 0 1 3.5 0ZM10.25 10.75c-1.716 0-3.127.356-3.75 1.75-.447 1 .231 1.75 1.075 1.75h5.35c.844 0 1.522-.75 1.075-1.75-.623-1.394-2.034-1.75-3.75-1.75ZM6 7.755a5.931 5.931 0 0 0-.25-.005c-1.715 0-3.127.356-3.75 1.75-.337.753 0 1.75 1.075 1.75H4.25"></path></svg></svg>