<?xml version="1.0" encoding="UTF-8"?>
<svg xmlns="http://www.w3.org/2000/svg" xmlns:xlink="http://www.w3.org/1999/xlink" width="200px" height="200px" viewBox="0 0 200 200" version="1.1">
<g id="surface1">
<path style=" stroke:none;fill-rule:nonzero;fill:rgb(42.745098%,37.254902%,89.803922%);fill-opacity:1;" d="M 134 102.5 L 138.5 102.75 L 141.25 103.75 L 143.75 106 L 145 108.5 L 145.5 110.75 L 145.5 113.5 L 144.75 116.5 L 143.25 119 L 142 120 L 139 121.25 L 136.5 121.75 L 132 121.75 L 129.75 121 L 128 119.75 L 127.75 119 L 127.75 108.25 L 128 104.25 L 129.25 103.25 L 131 102.75 Z M 133.5 106.75 L 133.25 107 L 133.25 117.5 L 133.75 118 L 136 118 L 137.75 117.25 L 139.25 116 L 140 114.25 L 140 110.25 L 139 108.25 L 137.5 107 L 137 106.75 Z M 133.5 106.75 "/>
<path style=" stroke:none;fill-rule:nonzero;fill:rgb(42.745098%,37.254902%,89.803922%);fill-opacity:1;" d="M 49.25 102.5 L 53 102.75 L 55.75 103.75 L 57.5 105.5 L 58.25 107.75 L 58.25 110 L 57.25 112 L 55.5 114.25 L 56.25 115.75 L 58.25 118.5 L 58.5 120.25 L 57.25 121.5 L 55.25 121.75 L 54 121 L 52.25 119 L 50 115.5 L 49.5 115 L 48.25 114.75 L 48.25 121.5 L 48 121.75 L 45.5 121.75 L 43.75 121.5 L 43.25 120.75 L 43 118 L 43 104.25 L 44.25 103.25 L 46.25 102.75 Z M 48.5 106.75 L 48 108 L 48 110 L 49 111 L 51.25 111 L 52.5 110.25 L 52.75 109.75 L 52.75 107.75 L 51.5 106.75 Z M 48.5 106.75 "/>
<path style=" stroke:none;fill-rule:nonzero;fill:rgb(42.745098%,37.254902%,89.803922%);fill-opacity:1;" d="M 86.25 101 L 90.5 101.25 L 91.25 101.5 L 91.25 118.75 L 90.5 120 L 88.25 121.25 L 86 121.75 L 82.5 121.75 L 80.5 121.25 L 78.5 120.25 L 76.5 118 L 76 116.75 L 75.75 114 L 76.25 111 L 77.75 108.5 L 79.5 107.25 L 81.25 106.75 L 85.75 106.5 L 86 101.25 Z M 83 110.75 L 81.75 111.25 L 81.25 112.25 L 81 115 L 81.75 116.75 L 82.75 117.75 L 83.25 118 L 85.25 118 L 86 117 L 86 111.25 L 85.5 110.75 Z M 83 110.75 "/>
<path style=" stroke:none;fill-rule:nonzero;fill:rgb(42.745098%,37.254902%,89.803922%);fill-opacity:1;" d="M 98.5 106.75 L 103.25 106.75 L 105.5 107.5 L 107.5 109.25 L 108.5 111.5 L 108.75 112.5 L 108.75 116.5 L 107.75 118.75 L 105.5 120.75 L 102.75 121.75 L 99 121.75 L 96.75 121 L 94.75 119.5 L 93.75 118.25 L 93 116.75 L 92.75 114 L 93.25 111.25 L 94.5 109 L 96.5 107.5 Z M 99.5 110.75 L 98.25 112 L 98 112.75 L 98 115.25 L 99 117.25 L 100.25 118 L 102 117.75 L 103.25 116.5 L 103.75 113.75 L 103 111.5 L 102 110.75 Z M 99.5 110.75 "/>
<path style=" stroke:none;fill-rule:nonzero;fill:rgb(42.745098%,37.254902%,89.803922%);fill-opacity:1;" d="M 115.25 106.75 L 121 106.75 L 123.25 107.75 L 125 109.75 L 125.5 111 L 125.5 121.5 L 125 121.75 L 122.5 121.75 L 121 121.25 L 120.25 119.5 L 120 111 L 116.25 111 L 116 121.25 L 115.5 121.75 L 112.75 121.75 L 111.25 121.25 L 110.75 120 L 110.75 109.75 L 111.5 108.5 L 113.25 107.25 Z M 115.25 106.75 "/>
<path style=" stroke:none;fill-rule:nonzero;fill:rgb(42.745098%,37.254902%,89.803922%);fill-opacity:1;" d="M 151.25 106.75 L 156.5 106.75 L 158.75 107.5 L 160.25 108.75 L 161 111.25 L 161.25 114.75 L 161.25 117.75 L 160.75 119.5 L 159.5 120.75 L 157.5 121.5 L 156 121.75 L 151.75 121.75 L 149.75 121.25 L 147.75 120 L 146.75 118.25 L 146.75 116.25 L 147.5 114.75 L 149 113.5 L 150.75 113 L 155.75 112.75 L 155.5 111 L 150 111 L 148.5 111.25 L 147.75 110.75 L 147.5 108.75 L 148 107.75 Z M 153 115.25 L 151.75 116 L 152 117.25 L 152.75 118 L 155 118 L 156 117.25 L 156 115.75 L 155.5 115.25 Z M 153 115.25 "/>
<path style=" stroke:none;fill-rule:nonzero;fill:rgb(42.745098%,37.254902%,89.803922%);fill-opacity:1;" d="M 177.75 106.75 L 183.75 106.75 L 186 107.5 L 187.5 109.25 L 188 110.75 L 188.25 112.75 L 188.25 117.75 L 188 119.5 L 186.75 120.75 L 184.5 121.5 L 183.25 121.75 L 178.5 121.75 L 176.25 121 L 174.75 119.75 L 174 118.5 L 174 116.25 L 174.75 114.75 L 176.25 113.5 L 178.25 113 L 182.75 112.75 L 182.75 110.75 L 175.25 111 L 175 110.75 L 175 108.75 L 175.5 107.5 Z M 180.75 115.25 L 179 115.75 L 179.25 117.5 L 179.75 118 L 182.25 118 L 183 117.5 L 183 115.5 L 182.75 115.25 Z M 180.75 115.25 "/>
<path style=" stroke:none;fill-rule:nonzero;fill:rgb(42.745098%,37.254902%,89.803922%);fill-opacity:1;" d="M 64 106.75 L 69.75 106.75 L 71.75 107.5 L 73.5 109.5 L 74 111.5 L 74.25 117.75 L 73.75 119.5 L 72.25 120.75 L 70.25 121.5 L 68.75 121.75 L 64.75 121.75 L 62.5 121 L 61 120 L 60 119 L 59.75 118.25 L 59.75 116.25 L 60.5 114.5 L 63 113.25 L 67 112.75 L 68.5 112.75 L 68.5 111.25 L 68.25 111 L 61 111 L 60.5 109 L 61 107.75 L 62.75 107 Z M 65.75 115.25 L 64.75 116 L 65 117.5 L 65.75 118 L 68 118 L 68.75 117.5 L 69 116 L 68.75 115.25 Z M 65.75 115.25 "/>
<path style=" stroke:none;fill-rule:nonzero;fill:rgb(42.745098%,37.254902%,89.803922%);fill-opacity:1;" d="M 21 96.75 L 27 96.75 L 27.25 97 L 27.25 121.25 L 21.25 121.25 L 21 121 Z M 21 96.75 "/>
<path style=" stroke:none;fill-rule:nonzero;fill:rgb(42.745098%,37.254902%,89.803922%);fill-opacity:1;" d="M 163.25 102.75 L 167.25 102.75 L 168 103.25 L 168 106.75 L 171.5 107 L 172.75 107.25 L 172.75 110.25 L 172.5 110.75 L 168.25 111 L 168.25 115.25 L 168.5 117.25 L 170 117.75 L 172.5 118 L 172.75 119.25 L 172.25 120.5 L 171.25 121.5 L 170.5 121.75 L 167.25 121.75 L 165 120.75 L 163.5 119 L 163 117 L 163 103.25 Z M 163.25 102.75 "/>
<path style=" stroke:none;fill-rule:nonzero;fill:rgb(42.745098%,37.254902%,89.803922%);fill-opacity:1;" d="M 30.75 102.25 L 36 102.25 L 36.25 121 L 36 121.25 L 31.25 121.25 L 30.75 121 Z M 30.75 102.25 "/>
<path style=" stroke:none;fill-rule:nonzero;fill:rgb(42.745098%,37.254902%,89.803922%);fill-opacity:1;" d="M 11.25 107.75 L 17.25 107.75 L 17.5 121 L 17.25 121.25 L 11.25 121.25 Z M 11.25 107.75 "/>
</g>
</svg>
